# xmcd
#
# Track frame offsets:
#	150
#	14300
#	28935
#	44565
#	57300
#	71338
#	87738
#	99320
#	113018
#	126873
#
# Disc length: 1840 seconds
#
# Revision: 1
# Processed by: cddbd v1.5.2PL0 Copyright (c) Steve Scherf et al.
# Submitted via: EasyCDDAExtractor 15.3.0.1
#
DISCID=86072e0a
DTITLE=Rocio Durcal - Canta Los Super Hits De Juan Gabriel Vol. 2
DYEAR=1983
DGENRE=Latin
TTITLE0=Cuando Yo Quiera Has De Volver
TTITLE1=Fue Tan Poco Tu Cariño
TTITLE2=Cuando Dijiste Adios
TTITLE3=Amor De Mi Vida
TTITLE4=Me Gustas Mucho
TTITLE5=No Lastimes Mas
TTITLE6=Hoy Por Fin
TTITLE7=Fue Un Placer Conocerte
TTITLE8=Nadie Es Como Tu
TTITLE9=Te Voy A Hacer Feliz
EXTD=
EXTT0=
EXTT1=
EXTT2=
EXTT3=
EXTT4=
EXTT5=
EXTT6=
EXTT7=
EXTT8=
EXTT9=
PLAYORDER=
